Coordinates	
version=1	
nRows=39	
nColumns=21	
inDegrees=yes	
Units are S.I. units (second, meters, Newtons, ...)	
Angles are in degrees	

endheader	

time	Th_rotX	Th_rotY	Th_rotZ	Th_transX	Th_transY	Th_transZ	Clav_rotZ_right	Clav_rotY_right	Clav_rotX_right	Scap_rotZ_right	Scap_rotY_right	Scap_rotX_right	Hum_rotZ_right	Hum_rotY_right	Hum_rotZZ_right	Elb_flex_right	Elb_ProSup_right	wrist_dev_r	wrist_flex_r	
0.5000000000	0.2314981015	0.9086300387	-0.0520844918	0.2525252525	0.2525252525	0.2525252525	-32.1203612422	-5.7727673942	26.3907832909	-15.0473764378	-29.2266350041	29.2266350041	-56.4276616417	1.7362357428	28.6478897565	90.8630040404	-1.4468633649	-1.8172600775	1.8172600775	-1.8172600775	
0.5100000000	0.6944943045	2.7258901162	0.4166992055	0.7575757576	0.7575757576	0.7575757576	-33.3357262622	-7.0581177619	27.6061483108	-16.4942395568	-30.3841254994	30.3841254994	-54.6914258989	5.2087072285	28.6478897565	92.6802641212	-4.3405896079	-5.4517802325	5.4517802325	-5.4517802325	
0.5200000000	1.1574905075	4.5431501937	0.8854829027	1.2626262626	1.2626262626	1.2626262626	-34.5510912821	-8.3434681297	28.8215133308	-17.9411026758	-31.5416159946	31.5416159946	-52.9551901560	8.6811787141	28.6478897565	94.4975242020	-7.2343158508	-9.0863003874	9.0863003874	-9.0863003874	
0.5300000000	1.6204867105	6.3604102712	1.3542666000	1.7676767677	1.7676767677	1.7676767677	-35.7664563021	-9.6288184975	30.0368783508	-19.3879657948	-32.6991064898	32.6991064898	-51.2189544132	12.1536501997	28.6478897565	96.3147842828	-10.1280420938	-12.7208205424	12.7208205424	-12.7208205424	
0.5400000000	2.0834829135	8.1776703487	1.8230502973	2.2727272727	2.2727272727	2.2727272727	-36.9818213221	-10.9141688653	31.2522433708	-20.8348289138	-33.8565969850	33.8565969850	-49.4827186704	15.6261216854	28.6478897565	98.1320443636	-13.0217683367	-16.3553406974	16.3553406974	-16.3553406974	
0.5500000000	2.5464791165	9.9949304262	2.2918339945	2.7777777778	2.7777777778	2.7777777778	-38.1971863421	-12.1995192331	32.4676083907	-22.2816920329	-35.0140874802	35.0140874802	-47.7464829276	19.0985931710	28.6478897565	99.9493044445	-15.9154945797	-19.9898608523	19.9898608523	-19.9898608523	
0.5600000000	3.0094753195	11.8121905037	2.7606176918	3.2828282828	3.2828282828	3.2828282828	-39.4125513620	-13.4848696009	33.6829734107	-23.7285551519	-36.1715779754	36.1715779754	-46.0102471847	22.5710646567	28.6478897565	101.7665645253	-18.8092208226	-23.6243810073	23.6243810073	-23.6243810073	
0.5700000000	3.4724715225	13.6294505811	3.2294013891	3.7878787879	3.7878787879	3.7878787879	-40.6279163820	-14.7702199687	34.8983384307	-25.1754182709	-37.3290684706	37.3290684706	-44.2740114419	26.0435361423	28.6478897565	103.5838246061	-21.7029470656	-27.2589011623	27.2589011623	-27.2589011623	
0.5800000000	3.9354677255	15.4467106586	3.6981850863	4.2929292929	4.2929292929	4.2929292929	-41.8432814020	-16.0555703364	36.1137034507	-26.6222813899	-38.4865589659	38.4865589659	-42.5377756991	29.5160076280	28.6478897565	105.4010846869	-24.5966733085	-30.8934213173	30.8934213173	-30.8934213173	
0.5900000000	4.3984639285	17.2639707361	4.1669687836	4.7979797980	4.7979797980	4.7979797980	-43.0586464220	-17.3409207042	37.3290684706	-28.0691445089	-39.6440494611	39.6440494611	-40.8015399563	32.9884791136	28.6478897565	107.2183447677	-27.4903995515	-34.5279414722	34.5279414722	-34.5279414722	
0.6000000000	4.8614601315	19.0812308136	4.6357524809	5.3030303030	5.3030303030	5.3030303030	-44.2740114419	-18.6262710720	38.5444334906	-29.5160076280	-40.8015399563	40.8015399563	-39.0653042135	36.4609505992	28.6478897565	109.0356048485	-30.3841257945	-38.1624616272	38.1624616272	-38.1624616272	
0.6100000000	5.3244563345	20.8984908911	5.1045361781	5.8080808081	5.8080808081	5.8080808081	-45.4893764619	-19.9116214398	39.7597985106	-30.9628707470	-41.9590304515	41.9590304515	-37.3290684706	39.9334220849	28.6478897565	110.8528649293	-33.2778520374	-41.7969817822	41.7969817822	-41.7969817822	
0.6200000000	5.7874525375	22.7157509686	5.5733198754	6.3131313131	6.3131313131	6.3131313131	-46.7047414819	-21.1969718076	40.9751635306	-32.4097338660	-43.1165209467	43.1165209467	-35.5928327278	43.4058935705	28.6478897565	112.6701250101	-36.1715782804	-45.4315019371	45.4315019371	-45.4315019371	
0.6300000000	6.2504487405	24.5330110461	6.0421035727	6.8181818182	6.8181818182	6.8181818182	-47.9201065019	-22.4823221754	42.1905285505	-33.8565969850	-44.2740114419	44.2740114419	-33.8565969850	46.8783650562	28.6478897565	114.4873850909	-39.0653045233	-49.0660220921	49.0660220921	-49.0660220921	
0.6400000000	6.7134449436	26.3502711235	6.5108872699	7.3232323232	7.3232323232	7.3232323232	-49.1354715218	-23.7676725432	43.4058935705	-35.3034601040	-45.4315019371	45.4315019371	-32.1203612422	50.3508365418	28.6478897565	116.3046451717	-41.9590307663	-52.7005422471	52.7005422471	-52.7005422471	
0.6500000000	7.1764411466	28.1675312010	6.9796709672	7.8282828283	7.8282828283	7.8282828283	-50.3508365418	-25.0530229110	44.6212585905	-36.7503232230	-46.5889924324	46.5889924324	-30.3841254994	53.8233080274	28.6478897565	118.1219052525	-44.8527570092	-56.3350624021	56.3350624021	-56.3350624021	
0.6600000000	7.6394373496	29.9847912785	7.4484546645	8.3333333333	8.3333333333	8.3333333333	-51.5662015618	-26.3383732787	45.8366236105	-38.1971863421	-47.7464829276	47.7464829276	-28.6478897565	57.2957795131	28.6478897565	119.9391653333	-47.7464832522	-59.9695825570	59.9695825570	-59.9695825570	
0.6700000000	8.1024335526	31.8020513560	7.9172383617	8.8383838384	8.8383838384	8.8383838384	-52.7815665817	-27.6237236465	47.0519886304	-39.6440494611	-48.9039734228	48.9039734228	-26.9116540137	60.7682509987	28.6478897565	121.7564254142	-50.6402094951	-63.6041027120	63.6041027120	-63.6041027120	
0.6800000000	8.5654297556	33.6193114335	8.3860220590	9.3434343434	9.3434343434	9.3434343434	-53.9969316017	-28.9090740143	48.2673536504	-41.0909125801	-50.0614639180	50.0614639180	-25.1754182709	64.2407224844	28.6478897565	123.5736854950	-53.5339357381	-67.2386228670	67.2386228670	-67.2386228670	
0.6900000000	9.0284259586	35.4365715110	8.8548057563	9.8484848485	9.8484848485	9.8484848485	-55.2122966217	-30.1944243821	49.4827186704	-42.5377756991	-51.2189544132	51.2189544132	-23.4391825281	67.7131939700	28.6478897565	125.3909455758	-56.4276619810	-70.8731430219	70.8731430219	-70.8731430219	
0.7000000000	9.4914221616	37.2538315885	9.3235894535	10.3535353535	10.3535353535	10.3535353535	-56.4276616417	-31.4797747499	50.6980836904	-43.9846388181	-52.3764449084	52.3764449084	-21.7029467853	71.1856654556	28.6478897565	127.2082056566	-59.3213882240	-74.5076631769	74.5076631769	-74.5076631769	
0.7100000000	9.9544183646	39.0710916659	9.7923731508	10.8585858586	10.8585858586	10.8585858586	-57.6430266616	-32.7651251177	51.9134487103	-45.4315019371	-53.5339354036	53.5339354036	-19.9667110424	74.6581369413	28.6478897565	129.0254657374	-62.2151144669	-78.1421833319	78.1421833319	-78.1421833319	
0.7200000000	10.4174145676	40.8883517434	10.2611568481	11.3636363636	11.3636363636	11.3636363636	-58.8583916816	-34.0504754855	53.1288137303	-46.8783650562	-54.6914258989	54.6914258989	-18.2304752996	78.1306084269	28.6478897565	130.8427258182	-65.1088407099	-81.7767034869	81.7767034869	-81.7767034869	
0.7300000000	10.8804107706	42.7056118209	10.7299405453	11.8686868687	11.8686868687	11.8686868687	-60.0737567016	-35.3358258532	54.3441787503	-48.3252281752	-55.8489163941	55.8489163941	-16.4942395568	81.6030799126	28.6478897565	132.6599858990	-68.0025669528	-85.4112236418	85.4112236418	-85.4112236418	
0.7400000000	11.3434069736	44.5228718984	11.1987242426	12.3737373737	12.3737373737	12.3737373737	-61.2891217216	-36.6211762210	55.5595437703	-49.7720912942	-57.0064068893	57.0064068893	-14.7580038140	85.0755513982	28.6478897565	134.4772459798	-70.8962931958	-89.0457437968	89.0457437968	-89.0457437968	
0.7500000000	11.8064031766	46.3401319759	11.6675079399	12.8787878788	12.8787878788	12.8787878788	-62.5044867415	-37.9065265888	56.7749087902	-51.2189544132	-58.1638973845	58.1638973845	-13.0217680712	88.5480228839	28.6478897565	136.2945060606	-73.7900194387	-92.6802639518	92.6802639518	-92.6802639518	
0.7600000000	12.2693993796	48.1573920534	12.1362916371	13.3838383838	13.3838383838	13.3838383838	-63.7198517615	-39.1918769566	57.9902738102	-52.6658175322	-59.3213878797	59.3213878797	-11.2855323283	92.0204943695	28.6478897565	138.1117661414	-76.6837456817	-96.3147841067	96.3147841067	-96.3147841067	
0.7700000000	12.7323955826	49.9746521309	12.6050753344	13.8888888889	13.8888888889	13.8888888889	-64.9352167815	-40.4772273244	59.2056388302	-54.1126806512	-60.4788783749	60.4788783749	-9.5492965855	95.4929658551	28.6478897565	139.9290262222	-79.5774719246	-99.9493042617	99.9493042617	-99.9493042617	
0.7800000000	13.1953917856	51.7919122083	13.0738590316	14.3939393939	14.3939393939	14.3939393939	-66.1505818015	-41.7625776922	60.4210038502	-55.5595437703	-61.6363688701	61.6363688701	-7.8130608427	98.9654373408	28.6478897565	141.7462863030	-82.4711981676	-103.5838244167	103.5838244167	-103.5838244167	
0.7900000000	13.6583879886	53.6091722858	13.5426427289	14.8989898990	14.8989898990	14.8989898990	-67.3659468214	-43.0479280600	61.6363688701	-57.0064068893	-62.7938593653	62.7938593653	-6.0768250999	102.4379088264	28.6478897565	143.5635463838	-85.3649244106	-107.2183445717	107.2183445717	-107.2183445717	
0.8000000000	14.1213841916	55.4264323633	14.0114264262	15.4040404040	15.4040404040	15.4040404040	-68.5813118414	-44.3332784278	62.8517338901	-58.4532700083	-63.9513498606	63.9513498606	-4.3405893571	105.9103803121	28.6478897565	145.3808064647	-88.2586506535	-110.8528647266	110.8528647266	-110.8528647266	
0.8100000000	14.5843803946	57.2436924408	14.4802101234	15.9090909091	15.9090909091	15.9090909091	-69.7966768614	-45.6186287955	64.0670989101	-59.9001331273	-65.1088403558	65.1088403558	-2.6043536142	109.3828517977	28.6478897565	147.1980665455	-91.1523768965	-114.4873848816	114.4873848816	-114.4873848816	
0.8200000000	15.0473765976	59.0609525183	14.9489938207	16.4141414141	16.4141414141	16.4141414141	-71.0120418814	-46.9039791633	65.2824639301	-61.3469962463	-66.2663308510	66.2663308510	-0.8681178714	112.8553232833	28.6478897565	149.0153266263	-94.0461031394	-118.1219050366	118.1219050366	-118.1219050366	
0.8300000000	15.5103728006	60.8782125958	15.4177775180	16.9191919192	16.9191919192	16.9191919192	-72.2274069013	-48.1893295311	66.4978289500	-62.7938593653	-67.4238213462	67.4238213462	0.8681178714	116.3277947690	28.6478897565	150.8325867071	-96.9398293824	-121.7564251915	121.7564251915	-121.7564251915	
0.8400000000	15.9733690036	62.6954726733	15.8865612152	17.4242424242	17.4242424242	17.4242424242	-73.4427719213	-49.4746798989	67.7131939700	-64.2407224844	-68.5813118414	68.5813118414	2.6043536142	119.8002662546	28.6478897565	152.6498467879	-99.8335556253	-125.3909453465	125.3909453465	-125.3909453465	
0.8500000000	16.4363652066	64.5127327507	16.3553449125	17.9292929293	17.9292929293	17.9292929293	-74.6581369413	-50.7600302667	68.9285589900	-65.6875856034	-69.7388023366	69.7388023366	4.3405893571	123.2727377403	28.6478897565	154.4671068687	-102.7272818683	-129.0254655015	129.0254655015	-129.0254655015	
0.8600000000	16.8993614096	66.3299928282	16.8241286098	18.4343434343	18.4343434343	18.4343434343	-75.8735019613	-52.0453806345	70.1439240100	-67.1344487224	-70.8962928318	70.8962928318	6.0768250999	126.7452092259	28.6478897565	156.2843669495	-105.6210081112	-132.6599856565	132.6599856565	-132.6599856565	
0.8700000000	17.3623576126	68.1472529057	17.2929123070	18.9393939394	18.9393939394	18.9393939394	-77.0888669812	-53.3307310023	71.3592890299	-68.5813118414	-72.0537833271	72.0537833271	7.8130608427	130.2176807116	28.6478897565	158.1016270303	-108.5147343542	-136.2945058114	136.2945058114	-136.2945058114	
0.8800000000	17.8253538156	69.9645129832	17.7616960043	19.4444444444	19.4444444444	19.4444444444	-78.3042320012	-54.6160813700	72.5746540499	-70.0281749604	-73.2112738223	73.2112738223	9.5492965855	133.6901521972	28.6478897565	159.9188871111	-111.4084605971	-139.9290259664	139.9290259664	-139.9290259664	
